<svg id="visual" viewBox="0 0 960 540" width="960" height="540" xmlns="http://www.w3.org/2000/svg" xmlns:xlink="http://www.w3.org/1999/xlink" version="1.1"><rect width="960" height="540" fill="#FFFFFF"></rect><g><g transform="translate(526 98)"><path d="M23.7 -28.6C36.2 -17.7 55.7 -15.5 58.8 -8.8C61.8 -2.1 48.5 9.1 40.1 22.8C31.8 36.5 28.4 52.7 20.5 55.2C12.5 57.6 -0.1 46.3 -9.8 38C-19.5 29.7 -26.3 24.4 -34 16.8C-41.7 9.3 -50.3 -0.6 -51.9 -12.3C-53.5 -24 -48.3 -37.6 -38.4 -48.9C-28.6 -60.3 -14.3 -69.4 -4.4 -64.2C5.6 -58.9 11.1 -39.4 23.7 -28.6Z" fill="#3d3b3b"></path></g><g transform="translate(112 99)"><path d="M24.3 -37.8C28.8 -25.2 27.7 -15 32.6 -3.4C37.6 8.3 48.4 21.2 47.7 32.4C47.1 43.6 34.9 52.9 20.2 60.4C5.5 67.9 -11.6 73.5 -22.4 67.2C-33.2 60.9 -37.7 42.6 -44 27.4C-50.4 12.3 -58.6 0.3 -60.3 -14.2C-62 -28.7 -57.3 -45.6 -46.1 -57C-35 -68.4 -17.5 -74.1 -3.8 -69.6C9.9 -65.1 19.9 -50.3 24.3 -37.8Z" fill="#3d3b3b"></path></g><g transform="translate(767 405)"><path d="M18.9 -23.7C29 -14.1 44.6 -12.4 48.1 -6.5C51.5 -0.5 42.8 9.6 34.3 15.7C25.9 21.9 17.8 24.2 8.8 30C-0.2 35.8 -10 45.1 -17 43.8C-24 42.5 -28.1 30.6 -30.4 20.5C-32.7 10.5 -33.1 2.3 -31.2 -5C-29.4 -12.3 -25.2 -18.7 -19.6 -29.1C-14.1 -39.5 -7 -53.8 -1.3 -52.2C4.4 -50.7 8.9 -33.3 18.9 -23.7Z" fill="#3d3b3b"></path></g><g transform="translate(189 429)"><path d="M46.3 -54.2C60.5 -43.3 72.8 -29.2 77.7 -12.2C82.5 4.8 79.8 24.7 67.6 32.7C55.4 40.7 33.7 36.8 19.3 33.5C5 30.1 -2 27.4 -14.4 27.9C-26.7 28.4 -44.4 32.1 -49.9 26.8C-55.4 21.4 -48.8 7 -42.6 -4C-36.4 -15 -30.8 -22.5 -23.8 -34.6C-16.8 -46.7 -8.4 -63.4 3.8 -68C16.1 -72.6 32.2 -65 46.3 -54.2Z" fill="#3d3b3b"></path></g></g></svg>