<svg xmlns="http://www.w3.org/2000/svg" width="960" height="540" fill="none" viewBox="0 0 960 540">
  <g clip-path="url(#a)">
    <path fill="#fff" d="M960 0H0v540h960V0Z"/>
    <path fill="#3D3B3B" d="M187.3 39.5c16.8 11.4 40.7 17 43.5 27.2 2.7 10.2-15.7 25-27.5 41.6-11.9 16.6-17.2 35.1-30.5 46.4-13.3 11.2-34.6 15.2-53.4 9.6-18.8-5.7-35.1-21.1-39.6-38.5-4.5-17.5 2.8-37 11.4-51.3 8.5-14.3 18.3-23.3 28.5-35.8 10.2-12.5 20.7-28.4 30.9-27.9 10.1.5 19.9 17.4 36.7 28.7Zm761.6 140.3c14.5 9.4 27 24.1 27.4 39.1.4 14.9-11.2 30.1-23.5 39-12.3 8.8-25.2 11.3-36.3 12.8-11.1 1.5-20.5 2-29-.6-8.5-2.7-29.9 14.6-34 6.9-4.1-7.7 9.2-40.4 11.2-49 2-8.6-6.4-28.2 0-39 6.5-10.9 27.9-12.9 40.4-17.8s29.2-.8 43.8 8.6ZM617.5 407.6c3.2 6.2 2.3 13.6 4.5 21.2 2.1 7.6 7.2 15.3 5.5 19.8-1.7 4.6-10.3 5.9-18 8-7.7 2.2-14.6 5.1-23.2 5.3-8.6.2-19.1-2.4-23.4-8.9-4.3-6.6-2.4-17.1 2.8-23.7 5.2-6.5 13.7-9.1 19.9-14.8 6.3-5.7 10.4-14.5 16-16.3 5.6-1.9 12.7 3.1 15.9 9.4Z"/>
  </g>
  <defs>
    <clipPath id="a">
      <path fill="#fff" d="M0 0h960v540H0z"/>
    </clipPath>
  </defs>
</svg>
