<svg id="visual" viewBox="0 0 960 540" width="960" height="540" xmlns="http://www.w3.org/2000/svg" xmlns:xlink="http://www.w3.org/1999/xlink" version="1.1"><rect x="0" y="0" width="960" height="540" fill="#FFFFFF"></rect><g transform="translate(989.4058445622904 58.83467304094526)"><path d="M155.8 -280.3C215 -235.8 285 -220.4 272.9 -178.5C260.7 -136.7 166.4 -68.3 117.7 -28.1C69.1 12.2 66.1 24.3 54.1 24.3C42.1 24.3 21.1 12.2 10.5 72.4C0 132.7 0 265.3 -7.7 278.6C-15.3 291.9 -30.7 185.8 -95 156.6C-159.4 127.4 -272.8 175.2 -313.8 161.9C-354.8 148.7 -323.4 74.3 -285 22.2C-246.6 -30 -201.3 -60 -176 -100.6C-150.8 -141.1 -145.6 -192.2 -119.6 -256C-93.7 -319.7 -46.8 -396.1 0.7 -397.4C48.3 -398.7 96.7 -324.9 155.8 -280.3" fill="#3d3b3b"></path></g></svg>