<svg id="visual" viewBox="0 0 960 540" width="960" height="540" xmlns="http://www.w3.org/2000/svg" xmlns:xlink="http://www.w3.org/1999/xlink" version="1.1"><rect x="0" y="0" width="960" height="540" fill="#FFFFFF"></rect><g transform="translate(915.3145025827278 54.0733344979283)"><path d="M191.9 -371C228.1 -311.5 222.7 -218.5 273.8 -151.1C324.9 -83.7 432.5 -41.8 437.4 2.8C442.3 47.5 344.5 95 283.6 145.4C222.7 195.7 198.6 249 157.5 237.7C116.3 226.5 58.2 150.7 -10.7 169.2C-79.5 187.7 -159 300.4 -231.6 329.8C-304.2 359.2 -369.9 305.4 -341.4 236.5C-312.9 167.7 -190.2 83.8 -187.6 1.5C-185 -80.8 -302.5 -161.7 -321.8 -214.5C-341 -267.3 -262 -292.1 -192 -332.2C-122 -372.3 -61 -427.7 8.4 -442.2C77.8 -456.8 155.7 -430.6 191.9 -371" fill="#3d3b3b"></path></g></svg>