<svg xmlns="http://www.w3.org/2000/svg" width="960" height="501" fill="none" viewBox="0 0 960 501">
  <g clip-path="url(#a)">
    <path fill="#fff" d="M960 0H0v501h960V0Z"/>
    <path fill="#3D3B3B" d="M187.3 36.647c16.8 10.577 40.7 15.772 43.5 25.236 2.7 9.463-15.7 23.194-27.5 38.595-11.9 15.401-17.2 32.565-30.5 43.049-13.3 10.391-34.6 14.102-53.4 8.907-18.8-5.288-35.1-19.576-39.6-35.72-4.5-16.236 2.8-34.327 11.4-47.595 8.5-13.267 18.3-21.617 28.5-33.214 10.2-11.597 20.7-26.349 30.9-25.885 10.1.464 19.9 16.143 36.7 26.627Zm738.6 130.167c14.5 8.722 27 22.36 27.4 36.277.4 13.823-11.2 27.926-23.5 36.183-12.3 8.164-25.2 10.484-36.3 11.875-11.1 1.392-20.5 1.856-29-.556-8.5-2.505-16.1-7.979-20.2-15.123-4.1-7.144-4.6-15.958-2.6-23.937 2-7.979-6.4-26.163 0-36.183 6.5-10.113 27.9-11.968 40.4-16.514 12.5-4.547 29.2-.743 43.8 7.978ZM617.5 378.162c3.2 5.752 2.3 12.618 4.5 19.669 2.1 7.051 7.2 14.195 5.5 18.37-1.7 4.268-10.3 5.474-18 7.422-7.7 2.041-14.6 4.732-23.2 4.918-8.6.185-19.1-2.227-23.4-8.258-4.3-6.123-2.4-15.865 2.8-21.988 5.2-6.031 13.7-8.443 19.9-13.731 6.3-5.288 10.4-13.453 16-15.123 5.6-1.763 12.7 2.876 15.9 8.721Z"/>
  </g>
  <defs>
    <clipPath id="a">
      <path fill="#fff" d="M0 0h960v501H0z"/>
    </clipPath>
  </defs>
</svg>
