<svg id="visual" viewBox="0 0 960 540" width="960" height="540" xmlns="http://www.w3.org/2000/svg" xmlns:xlink="http://www.w3.org/1999/xlink" version="1.1"><rect x="0" y="0" width="960" height="540" fill="#FFFFFF"></rect><g transform="translate(913.5445953339458 83.28921893422921)"><path d="M154.1 -316.8C188.9 -246.9 198.8 -183.7 235.5 -132C272.1 -80.3 335.6 -40.2 372.1 21.1C408.6 82.3 418.2 164.7 361.2 181.1C304.2 197.6 180.6 148.2 109.3 118.2C38 88.3 19 77.9 -30.8 131.2C-80.5 184.4 -161 301.4 -187 305.1C-213 308.9 -184.4 199.4 -205.3 129.7C-226.3 60 -296.6 30 -307.3 -6.2C-318 -42.3 -269 -84.7 -242.1 -144.1C-215.3 -203.6 -210.7 -280.2 -174 -349C-137.3 -417.9 -68.7 -478.9 -4.5 -471.1C59.7 -463.3 119.3 -386.7 154.1 -316.8" fill="#3d3b3b"></path></g></svg>