<svg id="visual" viewBox="0 0 960 540" width="960" height="540" xmlns="http://www.w3.org/2000/svg" xmlns:xlink="http://www.w3.org/1999/xlink" version="1.1"><rect x="0" y="0" width="960" height="540" fill="#FFFFFF"></rect><g transform="translate(7.434016087058382 90.37764531477154)"><path d="M197.4 -366.8C253.9 -309.4 296.2 -252.4 286.3 -191.4C276.4 -130.3 214.2 -65.2 167.5 -27C120.8 11.3 89.6 22.5 86.4 60.8C83.1 99 107.8 164.2 98.1 211C88.3 257.7 44.2 285.8 9.5 269.4C-25.2 252.9 -50.3 191.8 -117.7 178.4C-185.1 165 -294.8 199.3 -302.2 177.5C-309.6 155.7 -214.8 77.8 -190 14.3C-165.2 -49.2 -210.3 -98.3 -201.8 -118.3C-193.3 -138.2 -131.2 -128.8 -88.6 -194.3C-46 -259.7 -23 -399.8 23.7 -441C70.5 -482.1 141 -424.2 197.4 -366.8" fill="#3d3b3b"></path></g></svg>