<svg id="visual" viewBox="0 0 767 450" width="767" height="450" xmlns="http://www.w3.org/2000/svg" xmlns:xlink="http://www.w3.org/1999/xlink" version="1.1"><rect x="0" y="0" width="767" height="450" fill="#FFFFFF"></rect><g transform="translate(5.459962215529984 22.735842292339655)"><path d="M80.9 -129.3C98.8 -98.4 102.9 -66.6 121 -33.9C139.2 -1.1 171.4 32.5 173.1 65.3C174.9 98 146.2 129.9 112.3 139.4C78.4 148.9 39.2 135.9 -2.4 139.3C-44.1 142.7 -88.2 162.4 -109.2 148.7C-130.3 135.1 -128.4 88.1 -141.9 46.2C-155.3 4.3 -184.2 -32.4 -184.1 -68.2C-184 -103.9 -154.9 -138.5 -119.4 -163.6C-83.9 -188.8 -41.9 -204.4 -5.2 -197.2C31.5 -190.1 63.1 -160.2 80.9 -129.3" fill="#3d3b3b"></path></g></svg>