<svg xmlns="http://www.w3.org/2000/svg" width="767" height="900" fill="none" viewBox="0 0 767 900">
  <g clip-path="url(#a)">
    <path fill="#fff" d="M767 0H0v900h767V0Z"/>
    <path fill="#3D3B3B" d="M-127.288-13.696C-94.088 64.885 53.142 55.52 72.5 199 84 284.241 5.5 256.5 61 371.5 184.5 540 41 473 89 683c41 82-87.8 126.247-148.6 103.753-60.9-22.494-110.6-63.783-141-120.462-30.4-56.679-41.4-128.749-74.7-207.33-33.3-78.729-88.9-163.97-95-252.911-6.2-89.088 37.1-182.024 95.3-248.618 58.1-66.595 131.2-106.995 199.4-96.932 68.2 9.915-84.988 47.223-51.688 125.804Zm975.762 92.665c17.237 48.733 93.676 42.925 103.726 131.907 5.971 52.864-34.785 35.66-5.971 106.979 64.121 104.499-10.383 62.948 14.537 193.183 21.287 50.854-45.584 78.295-77.15 64.345-31.618-13.951-57.421-39.556-73.204-74.707-15.783-35.151-21.494-79.846-38.783-128.58C689.5 460.5 746 218.5 641.5 126.5c-3.219-55.25 100.068-24.137 130.285-65.437 30.164-41.3 68.116-66.355 103.524-60.114 35.408 6.149-44.124 29.286-26.835 78.02Z"/>
  </g>
  <defs>
    <clipPath id="a">
      <path fill="#fff" d="M0 0h767v900H0z"/>
    </clipPath>
  </defs>
</svg>
