<svg id="visual" viewBox="0 0 960 540" width="960" height="540" xmlns="http://www.w3.org/2000/svg" xmlns:xlink="http://www.w3.org/1999/xlink" version="1.1"><rect x="0" y="0" width="960" height="540" fill="#FFFFFF"></rect><g transform="translate(975.2701065550574 -0.13725851952412427)"><path d="M136.4 -251.2C182.3 -182.7 229 -154.3 304.5 -105C380.1 -55.7 484.5 14.5 469.6 62.3C454.6 110.2 320.3 135.6 248.6 211.7C176.9 287.8 167.9 414.5 117.7 453C67.5 491.6 -23.9 442 -59.9 360.1C-96 278.2 -76.7 164 -157.7 113C-238.7 62 -420 74.2 -478.5 34.8C-537 -4.5 -472.7 -95.5 -413.9 -174.3C-355 -253.1 -301.6 -319.6 -233.5 -378C-165.4 -436.4 -82.7 -486.7 -18.7 -457.5C45.2 -428.4 90.5 -319.8 136.4 -251.2" fill="#3D3B3B"></path></g></svg>