<svg id="visual" viewBox="0 0 960 540" width="960" height="540" xmlns="http://www.w3.org/2000/svg" xmlns:xlink="http://www.w3.org/1999/xlink" version="1.1"><rect width="960" height="540" fill="#FFFFFF"></rect><g><g transform="translate(210 122)"><path d="M36.3 -40.5C53.1 -29.1 77 -23.5 79.8 -13.3C82.5 -3.1 64.1 11.7 52.3 28.3C40.4 44.9 35.1 63.4 21.8 74.7C8.5 85.9 -12.8 89.9 -31.6 84.3C-50.4 78.6 -66.7 63.2 -71.2 45.8C-75.7 28.3 -68.4 8.8 -59.8 -5.5C-51.3 -19.8 -41.5 -28.8 -31.3 -41.3C-21.1 -53.8 -10.6 -69.7 -0.4 -69.2C9.7 -68.7 19.5 -51.8 36.3 -40.5Z" fill="#3d3b3b"></path></g><g transform="translate(893 296)"><path d="M47.9 -54.2C62.4 -44.8 74.9 -30.1 75.3 -15.1C75.7 -0.2 64.1 15 51.8 23.9C39.5 32.7 26.6 35.2 15.5 36.7C4.4 38.2 -5 38.7 -13.5 36.1C-22 33.4 -29.6 27.5 -33.7 19.8C-37.8 12.1 -38.3 2.6 -36.3 -6C-34.3 -14.6 -29.7 -22.3 -23.3 -33.1C-16.8 -44 -8.4 -57.9 4.1 -62.8C16.6 -67.7 33.3 -63.6 47.9 -54.2Z" fill="#3d3b3b"></path></g><g transform="translate(674 404)"><path d="M17.5 -24.4C20.7 -18.2 19.8 -10.8 22 -3.2C24.1 4.4 29.2 12.1 27.5 16.6C25.8 21.2 17.2 22.5 9.5 24.6C1.8 26.8 -5.1 29.7 -13.7 29.9C-22.3 30.1 -32.8 27.5 -37.1 21C-41.4 14.4 -39.5 3.9 -34.3 -2.7C-29.1 -9.2 -20.6 -11.8 -14.4 -17.5C-8.1 -23.2 -4 -32 1.6 -33.8C7.2 -35.7 14.3 -30.7 17.5 -24.4Z" fill="#3d3b3b"></path></g></g></svg>