<svg id="visual" viewBox="0 0 960 540" width="960" height="540" xmlns="http://www.w3.org/2000/svg" xmlns:xlink="http://www.w3.org/1999/xlink" version="1.1"><rect width="960" height="540" fill="#FFFFFF"></rect><g><g transform="translate(813 290)"><path d="M46.3 -51C59.8 -43.9 70.3 -29.1 71.2 -14C72.2 1.1 63.5 16.4 52.8 26.1C42 35.9 29.1 40.1 13.8 51.5C-1.4 62.9 -18.9 81.4 -28.5 78C-38.1 74.6 -39.9 49.4 -46.8 30.4C-53.8 11.5 -65.8 -1.1 -71.4 -20.1C-77 -39.1 -76.2 -64.5 -63.3 -71.6C-50.3 -78.8 -25.1 -67.7 -4.4 -62.5C16.4 -57.3 32.9 -58 46.3 -51Z" fill="#3d3b3b"></path></g><g transform="translate(235 53)"><path d="M18.4 -19C25.1 -16.3 32.8 -11.7 33.6 -6C34.5 -0.4 28.5 6.3 25 16.2C21.4 26.1 20.2 39.2 15.1 40.8C9.9 42.4 0.9 32.5 -7 26.5C-14.9 20.5 -21.5 18.4 -23.8 14C-26 9.6 -23.8 2.9 -23 -4.5C-22.2 -11.8 -22.7 -19.8 -19.1 -23.1C-15.5 -26.4 -7.8 -25 -1 -23.8C5.8 -22.6 11.6 -21.7 18.4 -19Z" fill="#3d3b3b"></path></g><g transform="translate(179 453)"><path d="M36.5 -42.9C43.8 -37.3 43.7 -22.5 42.7 -10.2C41.7 2.1 39.7 11.9 34.7 19.6C29.7 27.3 21.9 32.9 13 36.4C4.1 39.9 -5.8 41.5 -12.6 37.7C-19.5 33.9 -23.3 24.8 -31.4 15.7C-39.4 6.7 -51.6 -2.3 -52.2 -11C-52.8 -19.8 -41.9 -28.3 -31.2 -33.2C-20.6 -38.1 -10.3 -39.5 2.1 -42C14.6 -44.6 29.2 -48.4 36.5 -42.9Z" fill="#3d3b3b"></path></g></g></svg>