<svg xmlns="http://www.w3.org/2000/svg" width="767" height="900" fill="none" viewBox="0 0 767 900">
  <g clip-path="url(#a)">
    <path fill="#fff" d="M767 0H0v900h767V0Z"/>
    <path fill="#3D3B3B" d="M-120.988 227.051c33.2 78.582 180.43 69.215 199.788 212.696 11.5 85.241-67 57.5-11.5 172.5 123.5 168.5-236.288 76-188.288 286 41 82 128.488 151.743 67.688 129.253-60.9-22.49-110.6-63.783-141-120.462-30.4-56.679-41.4-128.749-74.7-207.33-33.3-78.729-88.9-163.97-95-252.91-6.2-89.089 37.1-182.025 95.3-248.619 58.1-66.594 131.2-106.995 199.4-96.932 68.2 9.915-84.988 47.223-51.688 125.804Z"/>
    <path fill="#3D3B3B" d="M-120.988 227.051c33.2 78.582 180.43 69.215 199.788 212.696 11.5 85.241-67 57.5-11.5 172.5 123.5 168.5-236.288 76-188.288 286 41 82 128.488 151.743 67.688 129.253-60.9-22.49-110.6-63.783-141-120.462-30.4-56.679-41.4-128.749-74.7-207.33-33.3-78.729-88.9-163.97-95-252.91-6.2-89.089 37.1-182.025 95.3-248.619 58.1-66.594 131.2-106.995 199.4-96.932 68.2 9.915-84.988 47.223-51.688 125.804Zm1028.462-81.082c17.237 48.733 93.676 42.925 103.726 131.907 5.97 52.864-34.785 35.66-5.97 106.979 64.12 104.499-10.384 62.948 14.54 193.183 21.28 50.854-45.588 78.295-77.154 64.345-31.618-13.951-57.421-39.556-73.204-74.707-15.783-35.151-21.494-79.846-38.783-128.58C748.5 527.5 678.5 325 687 291c-3.219-55.25 113.568-121.637 143.785-162.937 30.164-41.3 68.116-66.355 103.524-60.114 35.408 6.149-44.124 29.286-26.835 78.02ZM738.5 689.5c0 35.07 8.5 66-40.5 76-32.585 0-77.5-40.93-77.5-76-17-56.5-12-71.823 63-63 93.5 11 55 27.93 55 63Z"/>
  </g>
  <defs>
    <clipPath id="a">
      <path fill="#fff" d="M0 0h767v900H0z"/>
    </clipPath>
  </defs>
</svg>
