<svg xmlns="http://www.w3.org/2000/svg" xmlns:xlink="http://www.w3.org/1999/xlink" version="1.1" width="1000" height="1000" viewBox="0 0 1000 1000" xml:space="preserve">
<desc>Created with Fabric.js 3.5.0</desc>
<defs>
</defs>
<rect x="0" y="0" width="100%" height="100%" fill="#ffffff"/>
<g transform="matrix(1 0 0 1 500 500)" id="599153">
<g style="" vector-effect="non-scaling-stroke">
		<g transform="matrix(1 0 0 1 0 0)" id="visual">
<rect style="stroke: none; stroke-width: 1; stroke-dasharray: none; stroke-linecap: butt; stroke-dashoffset: 0; stroke-linejoin: miter; stroke-miterlimit: 4; is-custom-font: none; font-file-url: none; fill: rgb(255,255,255); fill-rule: nonzero; opacity: 1;" x="-480" y="-270" rx="0" ry="0" width="960" height="540"/>
</g>
		<g transform="matrix(1 0 0 1 480 -270)" id="visual">
<path style="stroke: none; stroke-width: 1; stroke-dasharray: none; stroke-linecap: butt; stroke-dashoffset: 0; stroke-linejoin: miter; stroke-miterlimit: 4; is-custom-font: none; font-file-url: none; fill: rgb(61,59,59); fill-rule: nonzero; opacity: 1;" transform=" translate(29.4058, 58.8347)" d="M 155.8 -280.3 C 215 -235.8 285 -220.4 272.9 -178.5 C 260.7 -136.7 166.4 -68.3 117.7 -28.1 C 69.1 12.2 66.1 24.3 54.1 24.3 C 42.1 24.3 21.1 12.2 10.5 72.4 C 0 132.7 0 265.3 -7.7 278.6 C -15.3 291.9 -30.7 185.8 -95 156.6 C -159.4 127.4 -272.8 175.2 -313.8 161.9 C -354.8 148.7 -323.4 74.3 -285 22.2 C -246.6 -30 -201.3 -60 -176 -100.6 C -150.8 -141.1 -145.6 -192.2 -119.6 -256 C -93.7 -319.7 -46.8 -396.1 0.7 -397.4 C 48.3 -398.7 96.7 -324.9 155.8 -280.3" stroke-linecap="round"/>
</g>
</g>
</g>
<g transform="matrix(0.6299 0 0 0.947 347.8065 500.0082)" id="207658">
<g style="" vector-effect="non-scaling-stroke">
		<g transform="matrix(1 0 0 1 0 0)" id="visual">
<rect style="stroke: none; stroke-width: 1; stroke-dasharray: none; stroke-linecap: butt; stroke-dashoffset: 0; stroke-linejoin: miter; stroke-miterlimit: 4; is-custom-font: none; font-file-url: none; fill: rgb(255,255,255); fill-rule: nonzero; opacity: 1;" x="-480" y="-270" rx="0" ry="0" width="960" height="540"/>
</g>
		<g transform="matrix(1 0 0 1 -480 -270)" id="visual">
<path style="stroke: none; stroke-width: 1; stroke-dasharray: none; stroke-linecap: butt; stroke-dashoffset: 0; stroke-linejoin: miter; stroke-miterlimit: 4; is-custom-font: none; font-file-url: none; fill: rgb(61,59,59); fill-rule: nonzero; opacity: 1;" transform=" translate(7.434, 90.3776)" d="M 197.4 -366.8 C 253.9 -309.4 296.2 -252.4 286.3 -191.4 C 276.4 -130.3 214.2 -65.2 167.5 -27 C 120.8 11.3 89.6 22.5 86.4 60.8 C 83.1 99 107.8 164.2 98.1 211 C 88.3 257.7 44.2 285.8 9.5 269.4 C -25.2 252.9 -50.3 191.8 -117.7 178.4 C -185.1 165 -294.8 199.3 -302.2 177.5 C -309.6 155.7 -214.8 77.8 -190 14.3 C -165.2 -49.2 -210.3 -98.3 -201.8 -118.3 C -193.3 -138.2 -131.2 -128.8 -88.6 -194.3 C -46 -259.7 -23 -399.8 23.7 -441 C 70.5 -482.1 141 -424.2 197.4 -366.8" stroke-linecap="round"/>
</g>
</g>
</g>
</svg>